<svg width="25" height="25" viewBox="0 0 25 25" fill="none" xmlns="http://www.w3.org/2000/svg">
<path d="M23.5499 17.9286V7.12861C23.5499 6.13261 22.7459 5.32861 21.7499 5.32861H4.93788C3.94188 5.32861 3.13788 6.13261 3.13788 7.12861V17.9286C3.13788 18.9246 3.94188 19.7286 4.93788 19.7286H21.7499C22.7459 19.7286 23.5499 18.9246 23.5499 17.9286ZM21.9779 6.99661C22.3739 7.39261 22.1579 7.80061 21.9419 8.00461L17.0699 12.4686L21.7499 17.3406C21.8939 17.5086 21.9899 17.7726 21.8219 17.9526C21.6659 18.1446 21.3059 18.1326 21.1499 18.0126L15.9059 13.5366L13.3379 15.8766L10.7819 13.5366L5.53788 18.0126C5.38188 18.1326 5.02188 18.1446 4.86588 17.9526C4.69788 17.7726 4.79388 17.5086 4.93788 17.3406L9.61788 12.4686L4.74588 8.00461C4.52988 7.80061 4.31388 7.39261 4.70988 6.99661C5.10588 6.60061 5.51388 6.79261 5.84988 7.08061L13.3379 13.1286L20.8379 7.08061C21.1739 6.79261 21.5819 6.60061 21.9779 6.99661Z" fill="#82B2A2"/>
</svg>
