<svg width="25" height="25" viewBox="0 0 25 25" fill="none" xmlns="http://www.w3.org/2000/svg">
<g clip-path="url(#clip0)">
<path d="M21.3533 3.7489H4.14644C2.27378 3.7489 0.749878 5.27281 0.749878 7.14593V17.9112C0.749878 19.7844 2.27378 21.3083 4.14644 21.3083H21.3533C23.226 21.3083 24.7499 19.7844 24.7499 17.9112V7.14593C24.7499 5.27281 23.226 3.7489 21.3533 3.7489ZM9.45972 9.15312L5.88644 12.7264L9.0641 15.9041C9.33878 16.1787 9.33878 16.6241 9.0641 16.8983C8.78988 17.173 8.34457 17.173 8.06988 16.8983L4.39488 13.2233C4.12019 12.9486 4.12019 12.5037 4.39488 12.2291L8.46503 8.1589C8.73972 7.88421 9.18503 7.88421 9.45972 8.1589C9.73394 8.43312 9.73394 8.87843 9.45972 9.15312ZM15.2596 7.4989L11.5414 18.0266C11.4121 18.3931 11.0103 18.5848 10.6443 18.4555C10.2782 18.3261 10.086 17.9244 10.2153 17.5583L13.9335 7.03062C14.0628 6.66453 14.4641 6.47234 14.8307 6.60171C15.1968 6.73109 15.3889 7.13281 15.2596 7.4989ZM21.1049 12.8281L17.0347 16.8983C16.76 17.173 16.3147 17.173 16.04 16.8983C15.7658 16.6241 15.7658 16.1787 16.04 15.9041L19.6133 12.3308L16.4357 9.15312C16.161 8.87843 16.161 8.43312 16.4357 8.1589C16.7099 7.88421 17.1552 7.88421 17.4299 8.1589L21.1049 11.8339C21.3796 12.1086 21.3796 12.5534 21.1049 12.8281Z" fill="#82B2A2"/>
</g>
<defs>
<clipPath id="clip0">
<rect width="24" height="24" fill="white" transform="translate(0.749878 0.528564)"/>
</clipPath>
</defs>
</svg>
